<svg width="10" height="10" viewBox="0 0 10 10" fill="none" xmlns="http://www.w3.org/2000/svg">
<path d="M4.47246 1.85938L1.02949 7.4875C0.971388 7.58239 0.939668 7.69107 0.937608 7.80231C0.935547 7.91356 0.963222 8.02334 1.01777 8.12031C1.07148 8.21636 1.1498 8.29638 1.24468 8.35212C1.33956 8.40787 1.44757 8.43734 1.55762 8.4375L8.44277 8.4375C8.60784 8.43678 8.76587 8.37053 8.88212 8.25333C8.99837 8.13613 9.06332 7.97757 9.06269 7.8125C9.06264 7.69728 9.03089 7.5843 8.9709 7.48594L5.52793 1.85938C5.4728 1.76893 5.39534 1.69419 5.30299 1.64232C5.21064 1.59046 5.1065 1.56322 5.00059 1.56322C4.89467 1.56322 4.79053 1.59046 4.69818 1.64232C4.60583 1.69419 4.52837 1.76893 4.47324 1.85938L4.47246 1.85938Z" fill="#329216"/>
</svg>
